<svg xmlns="http://www.w3.org/2000/svg" xmlns:xlink="http://www.w3.org/1999/xlink" width="341.04" height="345.278" viewBox="0 0 341.04 345.278">
  <defs>
    <clipPath id="clip-path">
      <rect id="Rectangle_4" data-name="Rectangle 4" width="245.42" height="256.999" fill="#ec6722"/>
    </clipPath>
  </defs>
  <g id="Groupe_85" data-name="Groupe 85" transform="translate(0 122.71) rotate(-30)">
    <g id="Groupe_9" data-name="Groupe 9" clip-path="url(#clip-path)">
      <path id="Tracé_11" data-name="Tracé 11" d="M237.4,80c-8.021,7.035-17.782,10.378-27.9,13.067-16.309,4.347-33.243,3.039-49.69,5.627-15.332,2.4-28.077,9.531-34.56,24.7-4.881,11.419-2.413,22.644,2.081,33.464,7.487,18.067,19.863,32.755,33.271,46.67,7.763,8.058,14.863,16.576,18.4,27.47,4.733,14.614-3.573,26-18.813,26.005-9.264.009-16.916-3.8-23.565-9.826-8.435-7.634-12.947-17.524-15.876-28.354-4.236-15.609-8.463-31.227-16.64-45.445-9.973-17.349-23.39-19.016-39.238-9.144-13.353,8.325-21.263,21.116-26.982,35.426a10.8,10.8,0,0,1-1.179,2.063c-3.486,4.708-11.64,14.062-19.679,12.726C7.932,212.935.694,204.739.114,195.282c-.387-6.216-.019-12.765,4.742-17.1,10.866-10.323,23.473-18.261,35.9-26.5a72.153,72.153,0,0,0,23.823-26.125c6.7-12.423,9.7-25.232,2.578-38.511C61.638,76.756,52.051,71.507,41.7,67.179c-7.312-3.057-15.627-3.37-22.267-8.2C12.5,53.755,9.093,44.526,11.515,34.516c2.026-8.426,5.949-15.4,15.351-17.432,5.092-1.105,9.292.995,13.159,3.9C46.5,25.814,54.713,39.59,54.713,39.59c5.479,8.094,10.01,16.815,16.327,24.366,4.172,4.991,9.107,8.564,15.6,9.78,7.772,1.464,12.211-2.919,10.783-10.71-1.492-8.15-5.479-15.517-7.21-23.639C86.63,22.554,93.638,7.6,108.934,2.065,118.446-1.37,128-.634,136.661,5.14c8.159,5.461,10.139,16.17,5.184,26.825-3.858,8.306-9.7,15.121-16.1,21.539-3.84,3.858-7.045,8.076-7.109,13.9-.064,6.7,3.886,11.612,10.572,12.128,12.229.939,23.583-2.551,34.579-7.579,9.015-4.126,16.447-10.387,23.887-16.769,10.535-9.043,22.672-13.758,36.8-11.815A25.386,25.386,0,0,1,241,52.344c7.026,8.444,5.553,19.624-3.61,27.654" transform="translate(0 0)" fill="#ec6722"/>
    </g>
  </g>
</svg>
